<?xml version="1.0" encoding="UTF-8"?>
<svg width="95px" height="105px" viewBox="0 0 95 105" version="1.1" xmlns="http://www.w3.org/2000/svg" xmlns:xlink="http://www.w3.org/1999/xlink">
    <!-- Generator: sketchtool 52.2 (67145) - http://www.bohemiancoding.com/sketch -->
    <title>2E8F9774-D9E9-43AB-BD6D-D5C14DF8B7B7</title>
    <desc>Created with sketchtool.</desc>
    <defs>
        <polygon id="path-1" points="0 104.682843 94.7662371 104.682843 94.7662371 0.42605917 0 0.42605917"></polygon>
    </defs>
    <g id="Home-Final" stroke="none" stroke-width="1" fill="none" fill-rule="evenodd">
        <g id="Home-final---desktop,-HD" transform="translate(-795.000000, -1722.000000)">
            <g id="Bullets" transform="translate(0.000000, 1498.000000)">
                <g id="CORRECT" transform="translate(749.112175, 155.000000)">
                    <g id="Checkbox" transform="translate(46.048313, 68.000000)">
                        <path d="M87.1207257,77.7013635 L87.1207257,31.4744669 L47.0868661,8.36154207 L7.05405336,31.4744669 L7.05405336,77.7013635 L47.0868661,100.814288 L87.1207257,77.7013635 Z" id="Stroke-1" stroke="#00A9B7" stroke-width="1.327" stroke-dasharray="2.654,2.654"></path>
                        <g id="Group-14" transform="translate(0.000000, 0.620769)">
                            <path d="M24.8732715,52.9728683 C24.4377909,52.5373877 24.2200506,51.9773345 24.2200506,51.2937555 C24.2200506,50.6091297 24.4377909,50.0501233 24.8732715,49.6156895 L28.323618,46.2585108 C28.7580518,45.7602204 29.3024026,45.5121221 29.9556236,45.5121221 C30.6088445,45.5121221 31.1835533,45.7602204 31.6807968,46.2585108 L42.125004,56.702718 L64.505149,34.322573 C65.0034393,33.8242827 65.5781481,33.5761844 66.2303222,33.5761844 C66.8835432,33.5761844 67.427894,33.8242827 67.8623278,34.322573 L71.3126743,37.6797518 C71.7481549,38.1141856 71.9658952,38.673192 71.9658952,39.3578178 C71.9658952,40.0403499 71.7481549,40.6014499 71.3126743,41.0369306 L43.80307,68.4523203 C43.3686362,68.9506106 42.808583,69.1987089 42.125004,69.1987089 C41.4414251,69.1987089 40.8813719,68.9506106 40.4458912,68.4523203 L24.8732715,52.9728683 Z" id="Fill-2" fill="#00A9B7"></path>
                            <mask id="mask-2" fill="white">
                                <use xlink:href="#path-1"></use>
                            </mask>
                            <g id="Clip-5"></g>
                            <polygon id="Fill-4" fill="#1C2B39" mask="url(#mask-2)" points="40.0537493 104.682843 54.1210297 104.682843 54.1210297 90.6155624 40.0537493 90.6155624"></polygon>
                            <polygon id="Fill-6" fill="#1C2B39" mask="url(#mask-2)" points="8.41336007 38.9061113 0.116197955 30.6079023 8.41336007 22.3096934 16.711569 30.6079023"></polygon>
                            <polygon id="Fill-7" fill="#EBE0D4" mask="url(#mask-2)" points="85.1824181 86.0727457 76.885256 77.7745368 85.1824181 69.4763278 93.4806271 77.7745368"></polygon>
                            <polygon id="Stroke-8" stroke="#BF9A73" mask="url(#mask-2)" points="85.1824181 86.0727457 76.885256 77.7745368 85.1824181 69.4763278 93.4806271 77.7745368"></polygon>
                            <path d="M15.8142277,76.2331866 C15.8142277,80.4550456 12.3910987,83.8792214 8.16923968,83.8792214 C3.94633381,83.8792214 0.523204848,80.4550456 0.523204848,76.2331866 C0.523204848,72.0113275 3.94633381,68.5871518 8.16923968,68.5871518 C12.3910987,68.5871518 15.8142277,72.0113275 15.8142277,76.2331866" id="Fill-9" fill="#EBE0D4" mask="url(#mask-2)"></path>
                            <path d="M15.8142277,76.2331866 C15.8142277,80.4550456 12.3910987,83.8792214 8.16923968,83.8792214 C3.94633381,83.8792214 0.523204848,80.4550456 0.523204848,76.2331866 C0.523204848,72.0113275 3.94633381,68.5871518 8.16923968,68.5871518 C12.3910987,68.5871518 15.8142277,72.0113275 15.8142277,76.2331866 Z" id="Stroke-10" stroke="#BF9A73" mask="url(#mask-2)"></path>
                            <path d="M94.765923,31.1715148 C94.765923,35.3933738 91.3427941,38.8175496 87.120935,38.8175496 C82.8980291,38.8175496 79.4749002,35.3933738 79.4749002,31.1715148 C79.4749002,26.9496557 82.8980291,23.5254799 87.120935,23.5254799 C91.3427941,23.5254799 94.765923,26.9496557 94.765923,31.1715148" id="Fill-11" fill="#1C2B39" mask="url(#mask-2)"></path>
                            <polygon id="Fill-12" fill="#EBE0D4" mask="url(#mask-2)" points="39.7481801 5.26764065 39.7481801 13.7417168 47.0874942 17.9792782 54.4257615 13.7417168 54.4257615 5.26764065 47.0874942 1.03007917"></polygon>
                            <polygon id="Stroke-13" stroke="#BF9A73" mask="url(#mask-2)" points="39.7481801 5.26764065 39.7481801 13.7417168 47.0874942 17.9792782 54.4257615 13.7417168 54.4257615 5.26764065 47.0874942 1.03007917"></polygon>
                        </g>
                    </g>
                </g>
            </g>
        </g>
    </g>
</svg>