<?xml version="1.0" encoding="UTF-8"?>
<svg width="117px" height="105px" viewBox="0 0 117 105" version="1.1" xmlns="http://www.w3.org/2000/svg" xmlns:xlink="http://www.w3.org/1999/xlink">
    <!-- Generator: sketchtool 52.2 (67145) - http://www.bohemiancoding.com/sketch -->
    <title>876ACDC6-29DF-4EE8-85FF-D2E110DAEE19</title>
    <desc>Created with sketchtool.</desc>
    <defs>
        <polygon id="path-1" points="0 0.233756788 109.742479 0.233756788 109.742479 50.7453841 0 50.7453841"></polygon>
    </defs>
    <g id="Home-Final" stroke="none" stroke-width="1" fill="none" fill-rule="evenodd">
        <g id="Home-final---desktop,-HD" transform="translate(-210.000000, -1723.000000)">
            <g id="Bullets" transform="translate(0.000000, 1498.000000)">
                <g id="FAST" transform="translate(157.794802, 155.000000)">
                    <g id="clock" transform="translate(52.205198, 70.093657)">
                        <path d="M58.7970029,97.4428727 C33.8406132,97.4428727 13.6085602,77.2118665 13.6085602,52.2554768 C13.6085602,27.2980402 33.8406132,7.06703403 58.7970029,7.06703403 C83.7533927,7.06703403 103.985446,27.2980402 103.985446,52.2554768 C103.985446,77.2118665 83.7533927,97.4428727 58.7970029,97.4428727" id="Fill-1" fill="#EBE0D4"></path>
                        <polyline id="Stroke-3" stroke="#FFFFFF" stroke-width="1.905" points="93.4139441 82.2699321 81.6339838 83.1168163 80.7870996 71.336856"></polyline>
                        <polyline id="Stroke-5" stroke="#FFFFFF" stroke-width="1.905" points="24.4316146 22.8685951 36.2115749 22.0217109 37.0584591 33.8016712"></polyline>
                        <polyline id="Stroke-7" stroke="#FFFFFF" stroke-width="1.905" points="91.2502544 20.5265259 91.1654613 32.3368442 79.355143 32.2520511"></polyline>
                        <polyline id="Stroke-9" stroke="#FFFFFF" stroke-width="1.905" points="26.5953043 84.6120013 26.6811442 72.801683 38.4904157 72.8864761"></polyline>
                        <path d="M58.7970029,97.4428727 C33.8406132,97.4428727 13.6085602,77.2118665 13.6085602,52.2554768 C13.6085602,27.2980402 33.8406132,7.06703403 58.7970029,7.06703403 C83.7533927,7.06703403 103.985446,27.2980402 103.985446,52.2554768 C103.985446,77.2118665 83.7533927,97.4428727 58.7970029,97.4428727 Z" id="Stroke-11" stroke="#1C2B39" stroke-width="2"></path>
                        <path d="M58.7970029,82.2638605 C42.2225684,82.2638605 28.7875724,68.8288644 28.7875724,52.2554768 C28.7875724,35.6820891 42.2225684,22.2460462 58.7970029,22.2460462 C75.3703906,22.2460462 88.8064335,35.6820891 88.8064335,52.2554768 C88.8064335,68.8288644 75.3703906,82.2638605 58.7970029,82.2638605 Z" id="Stroke-13" stroke="#BF9A73" stroke-width="2.099"></path>
                        <path d="M58.7970029,80.8530498 C43.0024556,80.8530498 30.1986971,68.0492913 30.1986971,52.2557908 C30.1986971,36.4612435 43.0024556,23.6564382 58.7970029,23.6564382 C74.5905034,23.6564382 87.3942619,36.4612435 87.3942619,52.2557908 C87.3942619,68.0492913 74.5905034,80.8530498 58.7970029,80.8530498" id="Fill-15" fill="#FFFFFF"></path>
                        <path d="M69.3659921,68.1898804 C68.6792727,68.7446994 67.6732705,68.6379229 67.1184515,67.9501567 L54.7595951,52.658087 L57.2458126,50.6481764 L69.604669,65.9423397 C70.1594881,66.6290592 70.0527116,67.6350613 69.3659921,68.1898804" id="Fill-17" fill="#00A9B7"></path>
                        <path d="M57.9934574,33.8500347 C58.8759338,33.8500347 59.5919644,34.5660653 59.5919644,35.4485417 L59.5919644,55.1121669 L56.3949504,55.1121669 L56.3949504,35.4485417 C56.3949504,34.5660653 57.1109811,33.8500347 57.9934574,33.8500347" id="Fill-19" fill="#00A9B7"></path>
                        <path d="M62.0934657,53.9381488 C62.0934657,56.2516396 60.2185959,58.1254625 57.9061519,58.1254625 C55.5937079,58.1254625 53.7188382,56.2516396 53.7188382,53.9381488 C53.7188382,51.6257048 55.5937079,49.7508351 57.9061519,49.7508351 C60.2185959,49.7508351 62.0934657,51.6257048 62.0934657,53.9381488" id="Fill-21" fill="#00A9B7"></path>
                        <path d="M58.7970029,82.2638605 C42.2225684,82.2638605 28.7875724,68.8288644 28.7875724,52.2554768 C28.7875724,35.6810423 42.2225684,22.2460462 58.7970029,22.2460462 C75.3703906,22.2460462 88.8064335,35.6810423 88.8064335,52.2554768 C88.8064335,68.8288644 75.3703906,82.2638605 58.7970029,82.2638605 Z" id="Stroke-23" stroke="#1C2B39" stroke-width="2.099" stroke-dasharray="1.072,13.934"></path>
                        <path d="M116.895981,54.4676346 L114.263207,54.4676346 C112.207236,54.4676346 110.567903,52.8125989 110.50928,50.755581 C110.216168,40.3145143 106.766869,29.8640261 99.9572499,20.9188772 C82.7002833,-1.74705196 50.2025415,-6.17304256 27.514629,11.0546129 C18.5244665,17.8809811 12.3931924,27.0742283 9.33121924,37.1017978 C9.33121924,37.1017978 7.85100384,43.1828242 7.32758963,46.4981298" id="Stroke-25" stroke="#00A9B7" stroke-width="1.05" stroke-dasharray="2.099,2.099"></path>
                        <g id="Group-29" transform="translate(0.000000, 53.243369)">
                            <mask id="mask-2" fill="white">
                                <use xlink:href="#path-1"></use>
                            </mask>
                            <g id="Clip-28"></g>
                            <path d="M109.742479,8.78215773 C109.044244,14.2549767 105.343706,21.9313696 105.343706,21.9313696 C101.918483,28.8362499 96.6822471,35.1852643 90.1343353,40.1702613 C67.402456,57.4785225 34.9444938,53.0797495 17.6383262,30.348917 C11.5593935,22.3658034 8.15824799,13.1809308 7.28833356,3.87567289 C7.09571713,1.82179551 5.41032336,0.233756788 3.34702453,0.233756788 L-0.000732779899,0.233756788" id="Stroke-27" stroke="#00A9B7" stroke-width="1.05" stroke-dasharray="2.099,2.099" mask="url(#mask-2)"></path>
                        </g>
                    </g>
                </g>
            </g>
        </g>
    </g>
</svg>