<?xml version="1.0" encoding="UTF-8"?>
<svg width="130px" height="109px" viewBox="0 0 130 109" version="1.1" xmlns="http://www.w3.org/2000/svg" xmlns:xlink="http://www.w3.org/1999/xlink">
    <!-- Generator: sketchtool 52.2 (67145) - http://www.bohemiancoding.com/sketch -->
    <title>127DF891-EABF-48BB-9B6C-49966F1FB0AF</title>
    <desc>Created with sketchtool.</desc>
    <g id="Home-Final" stroke="none" stroke-width="1" fill="none" fill-rule="evenodd">
        <g id="Home-final---desktop,-HD" transform="translate(-218.000000, -2475.000000)">
            <g id="Bullets" transform="translate(0.000000, 1498.000000)">
                <g id="SIMPLE" transform="translate(157.794802, 915.000000)">
                    <g id="cloud" transform="translate(60.864569, 63.000000)">
                        <path d="M107.636845,39.6101428 C113.505232,40.8290634 118.373372,43.8074339 122.241265,48.5466191 C126.109157,53.2871693 128.043776,58.7702646 128.043776,65.001365 C128.043776,69.7391852 126.909086,74.1057329 124.641052,78.101008 C122.374362,82.0962831 119.272788,85.2452751 115.33902,87.5466191 C111.405251,89.849328 107.103111,91 102.435289,91 L28.8108914,91 C23.6093357,91 18.8070723,89.6800714 14.4054457,87.0388492 C10.0038191,84.398992 6.50295296,80.8432381 3.90150289,76.3756825 C1.30139724,71.9067619 0,67.0310794 0,61.75 C0,55.3864973 1.80152098,49.698656 5.40321851,44.6878412 C9.00357163,39.6770265 13.6055166,36.1567619 19.2077091,34.1243175 L19.2077091,32.5 C19.2077091,26.6770265 20.6408594,21.2608148 23.5085043,16.25 C26.3761493,11.2405502 30.2776522,7.27803444 35.213013,4.36791264 C40.1470294,1.45642587 45.515293,0 51.3178039,0 C57.1203147,0 62.4885784,1.48918522 67.4239392,4.46892062 C72.3579556,7.44865603 76.2271924,11.3743175 79.0276165,16.25 C82.2286773,14.0837883 85.7618094,13 89.6297019,13 C94.9656994,13 99.5004235,14.8959471 103.235218,18.6878412 C106.970013,22.4783704 108.837411,27.0837883 108.837411,32.5 C108.837411,34.9378412 108.436774,37.3074339 107.636845,39.6101428" id="Fill-1" fill="#FFFFFF"></path>
                        <path d="M107.636845,39.6101428 C113.505232,40.8290634 118.373372,43.8074339 122.241265,48.5466191 C126.109157,53.2871693 128.043776,58.7702646 128.043776,65.001365 C128.043776,69.7391852 126.909086,74.1057329 124.641052,78.101008 C122.374362,82.0962831 119.272788,85.2452751 115.33902,87.5466191 C111.405251,89.849328 107.103111,91 102.435289,91 L28.8108914,91 C23.6093357,91 18.8070723,89.6800714 14.4054457,87.0388492 C10.0038191,84.398992 6.50295296,80.8432381 3.90150289,76.3756825 C1.30139724,71.9067619 0,67.0310794 0,61.75 C0,55.3864973 1.80152098,49.698656 5.40321851,44.6878412 C9.00357163,39.6770265 13.6055166,36.1567619 19.2077091,34.1243175 L19.2077091,32.5 C19.2077091,26.6770265 20.6408594,21.2608148 23.5085043,16.25 C26.3761493,11.2405502 30.2776522,7.27803444 35.213013,4.36791264 C40.1470294,1.45642587 45.515293,0 51.3178039,0 C57.1203147,0 62.4885784,1.48918522 67.4239392,4.46892062 C72.3579556,7.44865603 76.2271924,11.3743175 79.0276165,16.25 C82.2286773,14.0837883 85.7618094,13 89.6297019,13 C94.9656994,13 99.5004235,14.8959471 103.235218,18.6878412 C106.970013,22.4783704 108.837411,27.0837883 108.837411,32.5 C108.837411,34.9378412 108.436774,37.3074339 107.636845,39.6101428 Z" id="Stroke-3" stroke="#00A8B6" stroke-width="1.119"></path>
                        <path d="M98.495212,71.5 C98.495212,91.1060002 82.8400833,107 63.5287419,107 C44.2187402,107 28.5636115,91.1060002 28.5636115,71.5 C28.5636115,51.8939998 44.2187402,36 63.5287419,36 C82.8400833,36 98.495212,51.8939998 98.495212,71.5" id="Fill-5" fill="#FFFFFF"></path>
                        <path d="M60.0735288,71.1400809 C59.9652745,69.6535244 59.3915264,68.3754401 58.3536378,67.3031028 C57.314396,66.229403 56.0302287,65.6380505 54.4997827,65.5276829 C52.8610824,65.4173153 51.3035729,65.9677908 49.8272541,67.177747 C48.6797579,68.6643035 48.1614902,70.2326138 48.2697446,71.8826779 C48.3252249,73.3692343 48.8854412,74.6473187 49.9503934,75.7210185 C51.0166988,76.7933558 52.2873343,77.357457 53.7622999,77.4133221 C55.4010002,77.5236897 56.9869265,77.0004654 58.5173725,75.8450118 C59.6635155,74.3584553 60.1831364,72.7915075 60.0735288,71.1400809 Z M70.8935517,75.5152715 C71.3306286,75.7346441 71.6323876,76.0780101 71.7961223,76.5467318 C71.9598571,77.014091 71.9327935,77.4691871 71.7149316,77.9079325 C71.2223743,79.3399865 70.0748781,81.1549207 68.2710899,83.3554604 C67.9422673,83.6865632 67.5471389,83.8923103 67.0829983,83.9754266 C66.6188578,84.0571804 66.1939595,83.9890523 65.8123628,83.7696796 L63.4348266,82.3648769 C62.0694685,83.5203305 60.5660862,84.4005464 58.9260327,85.006887 L58.9260327,87.8124047 C58.9260327,88.2538752 58.762298,88.6653693 58.4348285,89.0509747 C58.1073591,89.4365801 57.7244093,89.6559528 57.2859792,89.7118179 C55.2102019,90.0960607 53.1344247,90.0960607 51.0572942,89.7118179 C50.5660901,89.6559528 50.1696085,89.4365801 49.8678495,89.0509747 C49.5674437,88.6653693 49.4172407,88.2538752 49.4172407,87.8124047 L49.4172407,85.006887 C47.7244133,84.4005464 46.2210309,83.5203305 44.9098,82.3648769 L42.5322637,83.7696796 C42.0951868,83.9890523 41.644578,84.0571804 41.1804375,83.9754266 C40.7149437,83.8923103 40.3468789,83.6865632 40.0735367,83.3554604 C38.3238757,81.2107858 37.1777327,79.394489 36.6310482,77.9079325 C36.4118331,77.4691871 36.3847695,77.014091 36.5485042,76.5467318 C36.712239,76.0780101 37.0126448,75.7346441 37.4497218,75.5152715 L40.1547275,74.1118313 C39.827258,72.3513996 39.827258,70.6168566 40.1547275,68.9109274 L37.4497218,67.5088498 C37.0126448,67.2336121 36.712239,66.8752579 36.5485042,66.43515 C36.3847695,65.9950421 36.4118331,65.5549342 36.6310482,65.1148262 C37.1777327,63.6282697 38.3238757,61.8119729 40.0735367,59.6672984 C40.3468789,59.281693 40.7149437,59.0473321 41.1804375,58.9642158 C41.644578,58.882462 42.0951868,58.979204 42.5322637,59.2544417 L44.9098,60.5747655 C46.2751581,59.4193119 47.7785404,58.5663473 49.4172407,58.0158717 L49.4172407,55.210354 C49.4172407,54.714381 49.5674437,54.2878987 49.8678495,53.9309071 C50.1696085,53.572553 50.5660901,53.366806 51.0572942,53.3109409 C53.1344247,52.926698 55.2102019,52.8980842 57.2859792,53.2278245 C57.7244093,53.3395547 58.1073591,53.572553 58.4348285,53.9309071 C58.762298,54.2878987 58.9260327,54.714381 58.9260327,55.210354 L58.9260327,58.0158717 C60.5660862,58.6208498 62.0694685,59.4738144 63.4348266,60.5747655 L65.8123628,59.2544417 C66.1939595,58.979204 66.6188578,58.882462 67.0829983,58.9642158 C67.5471389,59.0473321 67.9422673,59.281693 68.2710899,59.6672984 C70.0207509,61.7574704 71.1668939,63.5737672 71.7149316,65.1148262 C71.8786663,65.5549342 71.8908449,65.9950421 71.755527,66.43515 C71.6175027,66.8752579 71.3306286,67.2336121 70.8935517,67.5088498 L68.1073552,68.9109274 C68.4361778,70.6168566 68.4361778,72.3513996 68.1073552,74.1118313 L70.8935517,75.5152715 Z" id="Fill-7" fill="#00A8B6"></path>
                        <path d="M80.1772158,86.2625791 C81.2062022,85.9415489 81.8729082,85.2968352 82.1800888,84.3337444 C82.485892,83.3693271 82.2489634,82.3783784 81.4693031,81.3608982 C80.4692441,80.6100588 79.4540326,80.3951543 78.4250463,80.7175111 C77.3946824,81.0385413 76.7279764,81.6951941 76.4221732,82.6861429 C76.1163701,83.6770917 76.3532987,84.6547747 77.1315815,85.619192 C78.133018,86.3687048 79.1482295,86.5836094 80.1772158,86.2625791 Z M77.298258,91.4866169 C77.1866812,91.7001949 77.0062298,91.8474443 76.7569037,91.9283651 C76.5062002,92.0079594 76.2692717,92.0212251 76.0474955,91.9681623 C75.0446815,91.5927426 74.1561993,91.0833392 73.3765389,90.4399521 C73.1533853,90.279437 73.029411,90.0791248 73.0004837,89.8376888 C72.9743113,89.5975794 73.0156361,89.3694091 73.1258354,89.1558311 L73.7939189,88.0295721 C73.2374123,87.3875116 72.7924824,86.6645302 72.4577519,85.8593014 L71.1243399,85.8593014 C70.8460866,85.8593014 70.609158,85.7797072 70.4135541,85.619192 C70.2193278,85.4586769 70.1215259,85.2437724 70.1215259,84.975805 C69.8997497,84.0127142 69.8721999,83.0217654 70.0388764,82.0029587 C70.0953535,81.7893807 70.2193278,81.6010076 70.4135541,81.4404924 C70.609158,81.2799773 70.8460866,81.200383 71.1243399,81.200383 L72.4577519,81.200383 C72.7924824,80.3951543 73.2374123,79.6456415 73.7939189,78.9491915 L73.1258354,77.8242591 C73.0156361,77.6106811 72.9743113,77.3825108 73.0004837,77.1410749 C73.029411,76.8996389 73.1533853,76.6993266 73.3765389,76.5388115 C74.1561993,75.896751 75.0446815,75.413879 76.0474955,75.0915222 C76.2692717,74.9853965 76.5062002,74.9708042 76.7569037,75.0517251 C77.0062298,75.1313193 77.1866812,75.2798953 77.298258,75.4947999 L77.9663415,76.6184058 C78.8562012,76.5109535 79.7474384,76.5388115 80.6359206,76.6993266 L81.3026266,75.4947999 C81.4142034,75.2798953 81.5960323,75.1313193 81.8467358,75.0517251 C82.0974393,74.9708042 82.3316129,74.9853965 82.5561441,75.0915222 C83.5562031,75.413879 84.4474403,75.896751 85.2257231,76.5388115 C85.4474993,76.6993266 85.5728511,76.8996389 85.6017784,77.1410749 C85.6293282,77.3825108 85.5880035,77.6106811 85.4764266,77.8242591 L84.8083431,78.9491915 C85.3648498,79.6456415 85.8097797,80.3951543 86.1431327,81.200383 L87.4792997,81.200383 C87.7561755,81.200383 87.9931041,81.2799773 88.1873304,81.4404924 C88.3829343,81.6010076 88.4793587,81.7893807 88.4793587,82.0029587 C88.7011349,83.0217654 88.7011349,84.0127142 88.4793587,84.975805 C88.4793587,85.2437724 88.3829343,85.4586769 88.1873304,85.619192 C87.9931041,85.7797072 87.7561755,85.8593014 87.4792997,85.8593014 L86.1431327,85.8593014 C85.8097797,86.6645302 85.3648498,87.3875116 84.8083431,88.0295721 L85.4764266,89.1558311 C85.5880035,89.3694091 85.6293282,89.5975794 85.6017784,89.8376888 C85.5728511,90.0791248 85.4474993,90.279437 85.2257231,90.4399521 C84.4474403,91.0833392 83.5562031,91.5927426 82.5561441,91.9681623 C82.3316129,92.0212251 82.0974393,92.0079594 81.8467358,91.9283651 C81.5960323,91.8474443 81.4142034,91.7001949 81.3026266,91.4866169 L80.6359206,90.3603579 C79.7474384,90.520873 78.8562012,90.520873 77.9663415,90.3603579 L77.298258,91.4866169 Z" id="Fill-9" fill="#BF9A72"></path>
                        <path d="M80.1772158,61.2625791 C81.2062022,60.9402223 81.8729082,60.2968352 82.1800888,59.3337444 C82.485892,58.3680005 82.2489634,57.3770518 81.4693031,56.3608982 C80.4692441,55.6100588 79.4540326,55.3951543 78.4250463,55.7161845 C77.3946824,56.0385413 76.7279764,56.6951941 76.4221732,57.6861429 C76.1163701,58.6770917 76.3532987,59.6547747 77.1315815,60.619192 C78.133018,61.3687048 79.1482295,61.5836094 80.1772158,61.2625791 Z M77.298258,66.4866169 C77.1866812,66.7001949 77.0062298,66.8474443 76.7569037,66.9283651 C76.5062002,67.0079594 76.2692717,67.0212251 76.0474955,66.9681623 C75.0446815,66.5927426 74.1561993,66.0833392 73.3765389,65.4399521 C73.1533853,65.279437 73.029411,65.0791248 73.0004837,64.8376888 C72.9743113,64.5975794 73.0156361,64.3694091 73.1258354,64.1558311 L73.7939189,63.0295721 C73.2374123,62.3875116 72.7924824,61.6645302 72.4577519,60.8593014 L71.1243399,60.8593014 C70.8460866,60.8593014 70.609158,60.7797072 70.4135541,60.619192 C70.2193278,60.4586769 70.1215259,60.2437724 70.1215259,59.975805 C69.8997497,59.0127142 69.8721999,58.0217654 70.0388764,57.0029587 C70.0953535,56.7893807 70.2193278,56.6010076 70.4135541,56.4404924 C70.609158,56.2799773 70.8460866,56.200383 71.1243399,56.200383 L72.4577519,56.200383 C72.7924824,55.3951543 73.2374123,54.6456415 73.7939189,53.9491915 L73.1258354,52.8242591 C73.0156361,52.6106811 72.9743113,52.3825108 73.0004837,52.1410749 C73.029411,51.8996389 73.1533853,51.6993266 73.3765389,51.5388115 C74.1561993,50.896751 75.0446815,50.4125524 76.0474955,50.0915222 C76.2692717,49.9853965 76.5062002,49.9708042 76.7569037,50.0517251 C77.0062298,50.1313193 77.1866812,50.2798953 77.298258,50.4947999 L77.9663415,51.6184058 C78.8562012,51.5109535 79.7474384,51.5388115 80.6359206,51.6993266 L81.3026266,50.4947999 C81.4142034,50.2798953 81.5960323,50.1313193 81.8467358,50.0517251 C82.0974393,49.9708042 82.3316129,49.9853965 82.5561441,50.0915222 C83.5562031,50.4125524 84.4474403,50.896751 85.2257231,51.5388115 C85.4474993,51.6993266 85.5728511,51.8996389 85.6017784,52.1410749 C85.6293282,52.3825108 85.5880035,52.6106811 85.4764266,52.8242591 L84.8083431,53.9491915 C85.3648498,54.6456415 85.8097797,55.3951543 86.1431327,56.200383 L87.4792997,56.200383 C87.7561755,56.200383 87.9931041,56.2799773 88.1873304,56.4404924 C88.3829343,56.6010076 88.4793587,56.7893807 88.4793587,57.0029587 C88.7011349,58.0217654 88.7011349,59.0127142 88.4793587,59.975805 C88.4793587,60.2437724 88.3829343,60.4586769 88.1873304,60.619192 C87.9931041,60.7797072 87.7561755,60.8593014 87.4792997,60.8593014 L86.1431327,60.8593014 C85.8097797,61.6645302 85.3648498,62.3875116 84.8083431,63.0295721 L85.4764266,64.1558311 C85.5880035,64.3694091 85.6293282,64.5975794 85.6017784,64.8376888 C85.5728511,65.0791248 85.4474993,65.279437 85.2257231,65.4399521 C84.4474403,66.0833392 83.5562031,66.5927426 82.5561441,66.9681623 C82.3316129,67.0212251 82.0974393,67.0079594 81.8467358,66.9283651 C81.5960323,66.8474443 81.4142034,66.7001949 81.3026266,66.4866169 L80.6359206,65.3603579 C79.7474384,65.520873 78.8562012,65.520873 77.9663415,65.3603579 L77.298258,66.4866169 Z" id="Fill-11" fill="#1C2A38"></path>
                        <path d="M28.5636115,64.2248385 C29.4018401,50.6757839 43.7751133,36 63.0369357,36 C82.2974169,36 97.5102599,50.6447853 97.5102599,70" id="Stroke-13" stroke="#1C2A38" stroke-width="1.178" stroke-dasharray="3,3"></path>
                        <polyline id="Stroke-15" stroke="#1C2A38" stroke-width="1.178" stroke-linecap="round" stroke-linejoin="round" points="95.5403557 71.1492109 98.4184061 74 101.450068 71"></polyline>
                        <path d="M98.495212,79.0527223 C98.0785499,89.2020767 83.1693502,107 63.7418012,107 C44.3142523,107 28.5636115,91.0573202 28.5636115,71" id="Stroke-17" stroke="#1C2A38" stroke-width="1.178" stroke-dasharray="3,3"></path>
                        <polyline id="Stroke-19" stroke="#1C2A38" stroke-width="1.178" stroke-linecap="round" stroke-linejoin="round" points="31.5184679 71.8507891 28.6396742 69 25.6087551 72"></polyline>
                    </g>
                </g>
            </g>
        </g>
    </g>
</svg>