<?xml version="1.0" encoding="UTF-8"?>
<svg width="141px" height="98px" viewBox="0 0 141 98" version="1.1" xmlns="http://www.w3.org/2000/svg" xmlns:xlink="http://www.w3.org/1999/xlink">
    <!-- Generator: sketchtool 52.2 (67145) - http://www.bohemiancoding.com/sketch -->
    <title>B95E40F3-638D-4CCE-A466-88709BEEC460</title>
    <desc>Created with sketchtool.</desc>
    <g id="Home-Final" stroke="none" stroke-width="1" fill="none" fill-rule="evenodd">
        <g id="Home-final---desktop,-HD" transform="translate(-778.000000, -2480.000000)">
            <g id="Bullets" transform="translate(0.000000, 1498.000000)">
                <g id="STABLE" transform="translate(750.202462, 916.000000)">
                    <g id="hexes" transform="translate(28.000000, 66.000000)">
                        <polygon id="Fill-1" fill="#1C2B39" points="0.79753762 69.2327388 16.2982821 78 31.7975376 69.2327388 16.2982821 60"></polygon>
                        <polygon id="Fill-2" fill="#00A9B7" points="0.79753762 88.1083425 16.2982821 97 31.7975376 88.1083425 16.2982821 79"></polygon>
                        <path d="M0.79753762,70.7503639 L0.79753762,88.2496361 L16.2982821,97 L31.7975376,88.2496361 L31.7975376,70.7503639 L16.2982821,62 L0.79753762,70.7503639 Z" id="Stroke-3" stroke="#00A9B7" stroke-width="0.956" stroke-dasharray="1.911,1.911"></path>
                        <polygon id="Fill-5" fill="#DFEFF3" points="52.2982821 0 36.7975376 8.74890821 36.7975376 26.2481803 52.2982821 35 67.7975376 26.2481803 67.7975376 8.74890821"></polygon>
                        <polygon id="Fill-6" fill="#BF9A73" points="37.7975376 8.61648761 37.7975376 26.2050082 52.7975376 35 52.7975376 0"></polygon>
                        <polygon id="Fill-7" fill="#1C2B39" points="73.7975376 8.74818019 73.7975376 26.250364 89.2975376 35 104.797538 26.250364 104.797538 8.74818019 89.2975376 0"></polygon>
                        <polygon id="Fill-8" fill="#EBE0D4" points="104.797538 27.7665131 89.2975376 19 73.7975376 27.7665131 89.2975376 37"></polygon>
                        <polygon id="Fill-9" fill="#00A9B7" points="73.7975376 8.89165755 89.2975376 18 104.797538 8.89165755 89.2975376 0"></polygon>
                        <polygon id="Fill-10" fill="#DFEFF3" points="74.7975376 69.2334869 90.2967932 78 105.797538 69.2334869 90.2967932 60"></polygon>
                        <polygon id="Fill-11" fill="#DFEFF3" points="74.7975376 88.1083425 90.2960488 97 105.797538 88.1083425 90.2960488 79"></polygon>
                        <path d="M74.7975376,70.7503639 L74.7975376,88.2496361 L90.2967932,97 L105.797538,88.2496361 L105.797538,70.7503639 L90.2967932,62 L74.7975376,70.7503639 Z" id="Stroke-12" stroke="#00A9B7" stroke-width="0.956" stroke-dasharray="1.911,1.911"></path>
                        <polygon id="Fill-14" fill="#1C2B39" points="36.7975376 70.7492721 36.7975376 88.2492721 52.2960488 97 67.7975376 88.2492721 67.7975376 70.7492721 52.2960488 62"></polygon>
                        <polygon id="Fill-15" fill="#EBE0D4" points="67.7975376 70.9995009 36.7975376 89 36.7975376 70.9995009 52.2967932 62"></polygon>
                        <polygon id="Fill-16" fill="#1C2B39" points="55.7975376 39.7503639 55.7975376 57.2496361 71.2975376 66 86.7975376 57.2496361 86.7975376 39.7503639 71.2975376 31"></polygon>
                        <polygon id="Fill-17" fill="#EBE0D4" points="55.7975376 39.2334869 71.2975376 48 86.7975376 39.2334869 71.2975376 30"></polygon>
                        <polygon id="Fill-18" fill="#00A9B7" points="71.7975376 47.5453083 71.7975376 66 86.7975376 56.9995009 86.7975376 39"></polygon>
                        <polygon id="Fill-19" fill="#BF9A73" points="109.797538 70.7507279 109.797538 88.2507279 125.298282 97 140.797538 88.2507279 140.797538 70.7507279 125.298282 62"></polygon>
                        <polygon id="Fill-20" fill="#00A9B7" points="109.797538 87.7672612 125.298282 97 140.797538 87.7672612 125.298282 79"></polygon>
                        <polygon id="Fill-21" fill="#EBE0D4" points="124.797538 80.4546917 124.797538 62 109.797538 71.0004991 109.797538 89"></polygon>
                        <polygon id="Fill-22" fill="#EBE0D4" points="18.7975376 39.7507279 18.7975376 57.2507279 34.2982821 66 49.7975376 57.2507279 49.7975376 39.7507279 34.2982821 31"></polygon>
                        <polygon id="Fill-23" fill="#00A9B7" points="44.7975376 60.585933 35.0902786 66 25.7975376 60.7780967 25.7975376 36.1796856 35.0902786 31 44.7975376 36.3922303"></polygon>
                        <polygon id="Fill-24" fill="#00A8B6" points="91.7975376 39.7503639 91.7975376 57.2496361 107.296793 66 122.797538 57.2496361 122.797538 39.7503639 107.296793 31"></polygon>
                        <polygon id="Fill-25" fill="#EBE0D4" points="91.7975376 57 122.797538 39.0004991 107.296793 30 91.7975376 39.0004991"></polygon>
                        <polygon id="Fill-26" fill="#1C2B39" points="100.797538 44.4996242 100.797538 51.5003758 106.797538 55 112.797538 51.5003758 112.797538 44.4996242 106.797538 41"></polygon>
                    </g>
                </g>
            </g>
        </g>
    </g>
</svg>